<?xml version="1.0" standalone="no"?><!DOCTYPE svg PUBLIC "-//W3C//DTD SVG 1.1//EN" "http://www.w3.org/Graphics/SVG/1.1/DTD/svg11.dtd"><svg height="1000" node-id="1" sillyvg="true" template-height="1000" template-width="1000" version="1.1" viewBox="0 0 1000 1000" width="1000" xmlns="http://www.w3.org/2000/svg" xmlns:xlink="http://www.w3.org/1999/xlink"><defs node-id="18"></defs><g node-id="56"><path d="M 620.96 477.09 L 627.20 468.06 L 632.03 458.66 L 635.51 448.78 L 637.64 438.69 L 638.48 428.51 L 637.98 418.13 L 636.22 408.11 L 633.18 398.34 L 628.80 388.78 L 623.29 380.00 L 616.51 371.87 L 608.36 364.38 L 599.24 358.08 L 589.82 353.26 L 580.04 349.82 L 569.75 347.66 L 559.55 346.85 L 549.39 347.35 L 539.16 349.16 L 529.41 352.22 L 520.05 356.53 L 511.18 362.10 L 503.07 368.89 L 495.64 376.97 L 379.04 522.91 L 372.80 531.95 L 367.97 541.35 L 364.49 551.23 L 362.36 561.31 L 361.52 571.50 L 362.01 581.88 L 363.78 591.90 L 366.81 601.66 L 371.20 611.23 L 376.71 620.00 L 383.49 628.13 L 391.64 635.63 L 400.75 641.92 L 410.18 646.75 L 419.96 650.18 L 430.25 652.34 L 440.44 653.15 L 450.61 652.66 L 460.84 650.85 L 470.59 647.78 L 479.95 643.48 L 488.82 637.90 L 496.93 631.12 L 504.36 623.03 L 620.96 477.09 Z" fill="#658257" fill-rule="nonzero" group-id="1" node-id="24" stroke="none" target-height="306.30002" target-width="276.96" target-x="361.52" target-y="346.85"></path></g><g node-id="57"><path d="M 435.51 452.23 L 560.83 552.35 L 620.96 477.09 L 627.23 468.01 L 632.05 458.59 L 635.51 448.77 L 637.66 438.58 L 638.48 428.39 L 637.99 418.12 L 636.20 408.00 L 633.15 398.25 L 628.80 388.78 L 623.26 379.96 L 616.48 371.84 L 608.36 364.37 L 599.28 358.10 L 589.86 353.28 L 580.04 349.82 L 569.85 347.67 L 559.66 346.85 L 549.39 347.34 L 539.27 349.13 L 529.52 352.18 L 520.05 356.53 L 511.23 362.06 L 503.11 368.85 L 495.64 376.97 L 435.51 452.23 Z" fill="#ffffff" fill-rule="nonzero" group-id="2" node-id="29" stroke="none" target-height="205.49997" target-width="202.96997" target-x="435.51" target-y="346.85"></path></g><g node-id="58"><path d="M 589.13 352.98 L 596.79 365.03 L 602.48 377.68 L 606.27 391.05 L 608.12 404.82 L 607.99 418.58 L 605.86 432.45 L 601.76 445.85 L 595.58 458.66 L 587.22 470.99 L 537.26 533.52 L 560.83 552.35 L 620.96 477.09 L 627.30 467.91 L 632.17 458.30 L 635.67 448.20 L 637.76 437.89 L 637.24 423.83 L 634.74 410.16 L 630.22 396.75 L 623.80 384.16 L 615.46 372.56 L 605.05 361.87 L 597.24 356.91 L 589.13 352.98 Z" fill="#f3e4e2" fill-rule="nonzero" group-id="3" node-id="34" stroke="none" target-height="199.36996" target-width="100.5" target-x="537.26" target-y="352.98"></path></g><g node-id="59"><path d="M 376.91 618.13 L 390.35 622.95 L 403.94 625.71 L 417.82 626.46 L 431.66 625.23 L 445.05 622.07 L 458.11 616.93 L 470.28 609.97 L 481.41 601.13 L 491.59 590.25 L 541.56 527.73 L 565.13 546.57 L 504.98 621.81 L 497.43 630.03 L 489.13 636.89 L 480.05 642.53 L 470.45 646.84 L 456.62 649.44 L 442.74 650.01 L 428.66 648.56 L 414.97 645.08 L 401.82 639.50 L 389.09 631.71 L 382.53 625.18 L 376.91 618.13 Z" fill="#3f5237" fill-rule="nonzero" group-id="4" node-id="39" stroke="none" target-height="122.28003" target-width="188.22" target-x="376.91" target-y="527.73"></path></g><g node-id="60"><path d="M 625.65 480.84 L 632.40 471.08 L 637.58 460.96 L 641.30 450.40 L 643.61 439.44 L 644.49 428.49 L 643.96 417.46 L 642.04 406.58 L 638.76 396.09 L 634.09 385.91 L 628.14 376.43 L 620.84 367.70 L 612.11 359.68 L 602.35 352.93 L 592.23 347.75 L 581.67 344.03 L 570.71 341.72 L 559.76 340.84 L 548.73 341.37 L 537.85 343.29 L 527.36 346.57 L 517.18 351.24 L 507.70 357.19 L 498.97 364.48 L 490.95 373.22 L 484.49 381.30 L 467.83 402.15 L 445.05 430.66 L 420.24 461.72 L 397.46 490.22 L 380.80 511.07 L 374.34 519.16 L 367.60 528.92 L 362.42 539.04 L 358.70 549.60 L 356.39 560.56 L 355.51 571.51 L 356.04 582.55 L 357.96 593.42 L 361.24 603.91 L 365.91 614.09 L 371.86 623.57 L 379.16 632.30 L 387.89 640.33 L 397.65 647.07 L 407.77 652.26 L 418.33 655.97 L 429.29 658.28 L 440.24 659.16 L 451.27 658.63 L 462.15 656.71 L 472.64 653.43 L 482.82 648.76 L 492.30 642.81 L 501.03 635.52 L 509.06 626.78 L 515.52 618.70 L 532.17 597.85 L 554.95 569.34 L 579.76 538.28 L 602.54 509.77 L 619.20 488.92 L 625.65 480.84 Z M 436.22 460.98 L 553.40 552.01 L 499.66 619.28 L 492.67 626.83 L 485.16 633.11 L 477.08 638.21 L 468.38 642.19 L 456.12 645.72 L 443.70 647.11 L 430.96 646.37 L 421.60 644.41 L 412.59 641.22 L 403.88 636.75 L 395.40 630.93 L 387.84 623.94 L 381.56 616.43 L 376.46 608.35 L 372.48 599.65 L 368.95 587.39 L 367.56 574.97 L 368.30 562.24 L 370.26 552.87 L 373.45 543.86 L 377.92 535.15 L 383.74 526.67 L 436.22 460.98 Z M 562.71 540.36 L 445.53 449.33 L 500.34 380.72 L 507.33 373.17 L 514.84 366.89 L 522.92 361.79 L 531.62 357.81 L 543.88 354.28 L 556.30 352.89 L 569.04 353.63 L 578.40 355.59 L 587.41 358.78 L 596.12 363.25 L 604.61 369.07 L 612.16 376.06 L 618.44 383.57 L 623.54 391.65 L 627.52 400.35 L 631.05 412.61 L 632.44 425.03 L 631.70 437.77 L 629.74 447.13 L 626.55 456.14 L 622.08 464.85 L 616.26 473.34 L 562.71 540.36 Z" fill="#16353c" fill-rule="evenodd" group-id="5" node-id="44" stroke="none" target-height="318.31998" target-width="288.97998" target-x="355.51" target-y="340.84"></path></g><g node-id="61"><path d="M 559.33 367.96 L 552.72 367.97 L 545.35 369.50 L 537.84 372.81 L 528.03 379.50 L 519.89 386.65 L 508.88 397.93 L 497.19 411.23 L 481.79 430.08 L 479.92 433.76 L 479.62 437.67 L 480.80 441.41 L 483.46 444.57 L 487.13 446.43 L 491.04 446.73 L 494.78 445.55 L 497.94 442.90 L 512.26 425.31 L 523.10 412.87 L 533.31 402.30 L 540.88 395.62 L 546.22 391.82 L 550.24 389.75 L 554.18 388.64 L 557.77 388.52 L 561.86 388.01 L 565.27 386.06 L 567.70 382.99 L 568.83 379.03 L 568.32 374.93 L 566.37 371.53 L 563.30 369.09 L 559.33 367.96 Z" fill="#ffffff" fill-rule="evenodd" group-id="6" node-id="49" stroke="none" target-height="78.77002" target-width="89.21002" target-x="479.62" target-y="367.96"></path></g><path d="M 458.18 460.79 L 453.80 466.57 L 451.30 469.88 L 448.48 473.72 L 443.10 481.06 L 441.37 484.80 L 441.22 488.72 L 442.54 492.41 L 445.32 495.47 L 449.06 497.19 L 452.98 497.34 L 456.67 496.02 L 459.73 493.25 L 465.03 486.01 L 467.82 482.22 L 470.29 478.95 L 474.61 473.25 L 476.40 469.54 L 476.61 465.62 L 475.35 461.91 L 472.62 458.81 L 468.91 457.02 L 464.99 456.81 L 461.28 458.07 L 458.18 460.79 Z" fill="#ffffff" fill-rule="evenodd" group-id="7" node-id="54" stroke="none" target-height="40.53" target-width="35.389984" target-x="441.22" target-y="456.81"></path></svg>